<svg xmlns="http://www.w3.org/2000/svg" viewBox="0 0 1280 720" role="img" aria-labelledby="title desc">
  <title id="title">Dummy pallet ID OCR image</title>
  <desc id="desc">A placeholder camera image for pallet ID OCR.</desc>
  <rect width="1280" height="720" fill="#1d242c"/>
  <rect x="86" y="78" width="1108" height="564" rx="18" fill="#f5f7fa"/>
  <rect x="126" y="118" width="1028" height="484" rx="10" fill="#dce4ec"/>
  <g transform="translate(220 190)">
    <rect x="0" y="0" width="840" height="340" rx="18" fill="#ffffff"/>
    <text x="48" y="88" fill="#1a1a1a" font-family="Inter, Arial, sans-serif" font-size="44" font-weight="700">PALLET ID</text>
    <text x="48" y="154" fill="#0066cc" font-family="Inter, Arial, sans-serif" font-size="58" font-weight="800">PLT-DUMMY-0001</text>
    <g fill="#111827">
      <rect x="52" y="218" width="12" height="82"/>
      <rect x="76" y="218" width="28" height="82"/>
      <rect x="116" y="218" width="16" height="82"/>
      <rect x="144" y="218" width="36" height="82"/>
      <rect x="194" y="218" width="10" height="82"/>
      <rect x="218" y="218" width="24" height="82"/>
      <rect x="258" y="218" width="42" height="82"/>
      <rect x="314" y="218" width="14" height="82"/>
      <rect x="342" y="218" width="30" height="82"/>
      <rect x="386" y="218" width="18" height="82"/>
      <rect x="420" y="218" width="48" height="82"/>
      <rect x="484" y="218" width="12" height="82"/>
      <rect x="512" y="218" width="34" height="82"/>
      <rect x="560" y="218" width="16" height="82"/>
      <rect x="590" y="218" width="46" height="82"/>
      <rect x="654" y="218" width="20" height="82"/>
      <rect x="690" y="218" width="54" height="82"/>
      <rect x="762" y="218" width="18" height="82"/>
    </g>
  </g>
  <g fill="none" stroke="#28a745" stroke-width="8" opacity="0.9">
    <path d="M172 150h120M172 150v90"/>
    <path d="M1108 150h-120M1108 150v90"/>
    <path d="M172 570h120M172 570v-90"/>
    <path d="M1108 570h-120M1108 570v-90"/>
  </g>
  <text x="58" y="682" fill="#ffffff" font-family="Inter, Arial, sans-serif" font-size="20" opacity="0.72">Pallet ID Camera Feed / Dummy OCR image</text>
</svg>
